<svg xmlns="http://www.w3.org/2000/svg" viewBox="0 0 400 300" width="406" height="306" class="illustration styles_illustrationTablet__1DWOa"><g id="_161_quality_check_outline" data-name="#161_quality_check_outline"><path d="M272.16,177.57l-19.14,2-4.12,19.5s-9.62-12-13.14-17.71c-2.9-4.66-7.6-9.13-15.23-9.13H190.21A17.71,17.71,0,0,0,172.5,190v53.9h60.93V215.79s10.7,14.66,20.33,12.74C274.71,225.6,273.29,188.25,272.16,177.57Z" fill="#68e1fd"></path><path d="M233.43,244.85H172.5a1,1,0,0,1-1-1V190a18.73,18.73,0,0,1,18.71-18.71h30.32c6.7,0,12.11,3.23,16.08,9.6,2.67,4.3,9,12.45,11.75,15.95L252,179.37a1,1,0,0,1,.87-.78l19.15-2a1,1,0,0,1,1.1.89c.27,2.57,1.5,16-.94,28.68-2.73,14.2-8.89,22.06-18.32,23.38-7.76,1.55-15.93-6.72-19.47-10.88v25.21A1,1,0,0,1,233.43,244.85Zm-59.93-2h58.93V215.79a1,1,0,0,1,.69-.95,1,1,0,0,1,1.11.36c.11.15,10.44,14.12,19.34,12.35,20.73-2.9,18.29-41.93,17.69-48.88l-17.42,1.83-4,18.79a1,1,0,0,1-1.76.41c-.39-.49-9.7-12.15-13.21-17.8s-8.41-8.66-14.38-8.66H190.21A16.72,16.72,0,0,0,173.5,190Z" fill="#093f68"></path><path d="M199.51,165.69h13.1a0,0,0,0,1,0,0v7.54a5.56,5.56,0,0,1-5.56,5.56h-2a5.56,5.56,0,0,1-5.56-5.56v-7.54A0,0,0,0,1,199.51,165.69Z" fill="#ffc9b0"></path><path d="M207,179.79h-2a6.57,6.57,0,0,1-6.56-6.56v-7.54a1,1,0,0,1,1-1H212.6a1,1,0,0,1,1,1v7.54A6.57,6.57,0,0,1,207,179.79Zm-6.53-13.1v6.54a4.56,4.56,0,0,0,4.56,4.56h2a4.56,4.56,0,0,0,4.56-4.56v-6.54Z" fill="#093f68"></path><path d="M160,131.67c-.64,0-3.45-15.77-3.8-17.31-1.65-7.33-4.15-15.12-2.7-22.57a20.38,20.38,0,0,1,2.93-8c1.64-2.34,4.37-4.1,7.22-3.88-.62,0,3.58-7.9,4.16-8.53a64.32,64.32,0,0,1,7.28-6.26,42.69,42.69,0,0,1,20.24-8.31,64.31,64.31,0,0,1,35,4.81c8.22,3.59,15.86,9,20.92,16.37,10.32,15.12,4.29,35.81,1.33,52.46L244.43,129Z" fill="#725858"></path><path d="M159.85,132.68c-1,0-1.33-.67-4.1-15.26-.27-1.44-.47-2.5-.55-2.84-.27-1.17-.55-2.36-.84-3.56-1.54-6.37-3.13-13-1.87-19.42a21.46,21.46,0,0,1,3.09-8.38,9.62,9.62,0,0,1,7.23-4.31,55,55,0,0,1,4.23-8.2,50.2,50.2,0,0,1,6.16-5.38l1.24-1a43.49,43.49,0,0,1,20.71-8.52,64.82,64.82,0,0,1,35.54,4.88c9.26,4,16.64,9.82,21.36,16.73,9.21,13.5,5.78,31.05,2.75,46.53-.44,2.27-.88,4.5-1.26,6.66a1,1,0,0,1-1.16.81l-8-1.4L160,132.67h-.15Zm.12-1h0Zm0-1Zm3.21-49.77a7.64,7.64,0,0,0-5.93,3.47A19.71,19.71,0,0,0,154.45,92c-1.17,6,.37,12.41,1.85,18.58.29,1.2.58,2.4.85,3.58.08.35.29,1.44.56,2.9.62,3.27,2.18,11.49,2.86,13.61L244.4,128a.66.66,0,0,1,.2,0l7.14,1.25c.34-1.86.72-3.77,1.1-5.71,2.95-15.1,6.29-32.21-2.45-45-4.5-6.6-11.59-12.14-20.49-16a63.74,63.74,0,0,0-34.45-4.74,41.51,41.51,0,0,0-19.76,8.1l-1.25,1a49.33,49.33,0,0,0-5.93,5.16,55.27,55.27,0,0,0-3.91,7.64,1,1,0,0,1,0,.3,1,1,0,0,1-1.08.92h0Z" fill="#093f68"></path><ellipse cx="168.63" cy="131.67" rx="12.72" ry="10.96" fill="#ffc9b0"></ellipse><path d="M168.63,143.64c-7.57,0-13.72-5.37-13.72-12s6.15-12,13.72-12,13.72,5.37,13.72,12S176.2,143.64,168.63,143.64Zm0-21.93c-6.46,0-11.72,4.47-11.72,10s5.26,10,11.72,10,11.72-4.47,11.72-10S175.09,121.71,168.63,121.71Z" fill="#093f68"></path><ellipse cx="242.81" cy="131.67" rx="12.72" ry="10.96" fill="#ffc9b0"></ellipse><path d="M242.81,143.64c-7.57,0-13.73-5.37-13.73-12s6.16-12,13.73-12,13.72,5.37,13.72,12S250.37,143.64,242.81,143.64Zm0-21.93c-6.47,0-11.73,4.47-11.73,10s5.26,10,11.73,10,11.72-4.47,11.72-10S249.27,121.71,242.81,121.71Z" fill="#093f68"></path><path d="M206.06,167.41a38.37,38.37,0,0,1-38.25-35.23c-.68-8.29-2.36-16.09.33-24.22a14.5,14.5,0,0,1,4.08-6.73c2-1.69,5.09-2.39,7.41-1.11C181,94.81,186.5,91.4,192,90.78s10.88,1,16.13,2.53a178.22,178.22,0,0,1,28.37,11.26c10.81,5.38,8,14.25,8,24.46A38.37,38.37,0,0,1,206.06,167.41Z" fill="#ffc9b0"></path><path d="M206.06,168.41h0a39.38,39.38,0,0,1-39.25-36.15c-.13-1.58-.29-3.14-.46-4.7-.72-6.76-1.4-13.14.85-19.92,1.1-3.33,2.49-5.61,4.38-7.18A8.16,8.16,0,0,1,179,98.77c2-5.41,7.73-8.4,12.84-9,5.73-.66,11.47,1,16.53,2.56a179,179,0,0,1,28.53,11.33c9.48,4.72,9.1,12.2,8.7,20.12-.08,1.69-.17,3.45-.17,5.23A39.42,39.42,0,0,1,206.06,168.41Zm-29.12-67.95a6.49,6.49,0,0,0-4.08,1.54c-1.59,1.32-2.78,3.31-3.77,6.27-2.11,6.37-1.45,12.54-.75,19.08.17,1.57.33,3.15.47,4.75a37.33,37.33,0,0,0,6.09,17.59,37.84,37.84,0,0,0,31.16,16.72A37.42,37.42,0,0,0,243.43,129c0-1.83.09-3.61.18-5.33.39-7.88.7-14.1-7.6-18.23a176.26,176.26,0,0,0-28.21-11.2c-4.88-1.46-10.4-3.1-15.74-2.49-4.6.52-10.15,3.43-11.46,8.59a1,1,0,0,1-1.45.63A4.6,4.6,0,0,0,176.94,100.46Z" fill="#093f68"></path><circle cx="188.29" cy="123.45" r="3.55" fill="#093f68"></circle><circle cx="224.94" cy="123.45" r="3.55" fill="#093f68"></circle><path d="M220.06,140.6a14,14,0,0,1-28,0Z" fill="#fff"></path><path d="M206.06,155.6a15,15,0,0,1-15-15,1,1,0,0,1,1-1h28a1,1,0,0,1,1,1A15,15,0,0,1,206.06,155.6Zm-13-14a13,13,0,0,0,25.93,0Z" fill="#093f68"></path><path d="M205.87,136.4a21.3,21.3,0,0,1-3.44-.29,1,1,0,1,1,.35-2,16.43,16.43,0,0,0,5.37,0c.31-.92-1.05-4.83-3-8.54a1,1,0,0,1,1.77-.93c1,1.85,4,8.07,3,10.36a1.83,1.83,0,0,1-1.21,1A12.49,12.49,0,0,1,205.87,136.4Z" fill="#093f68"></path><path d="M178.65,112.58a2,2,0,0,1-.21-4l16.86-1.77a2,2,0,0,1,.41,4l-16.85,1.77Z" fill="#093f68"></path><path d="M236.5,114.15a2.43,2.43,0,0,1-.38,0L219.47,111a2,2,0,1,1,.75-3.93l16.64,3.15a2,2,0,0,1-.36,4Z" fill="#093f68"></path><rect x="201.52" y="180.21" width="9.7" height="7.64" rx="2.82" fill="#f56132"></rect><path d="M208.41,188.85h-4.07a3.82,3.82,0,0,1-3.82-3.82v-2a3.83,3.83,0,0,1,3.82-3.82h4.07a3.83,3.83,0,0,1,3.82,3.82v2A3.83,3.83,0,0,1,208.41,188.85Zm-4.07-7.64a1.83,1.83,0,0,0-1.82,1.82v2a1.83,1.83,0,0,0,1.82,1.82h4.07a1.83,1.83,0,0,0,1.82-1.82v-2a1.83,1.83,0,0,0-1.82-1.82Z" fill="#093f68"></path><polygon points="203.59 187.85 197.47 222.56 206.37 234.23 213.05 221.98 209.16 187.85 203.59 187.85" fill="#f56132"></polygon><path d="M206.37,235.23a1,1,0,0,1-.79-.39l-8.91-11.68a1,1,0,0,1-.19-.78l6.12-34.71a1,1,0,0,1,1-.82h5.57a1,1,0,0,1,1,.89L214,221.87a1.09,1.09,0,0,1-.11.59l-6.68,12.25a1,1,0,0,1-.8.52Zm-7.84-12.93,7.7,10.1L212,221.78l-3.75-32.93h-3.84Z" fill="#093f68"></path><rect x="113.74" y="145.79" width="71" height="86.26" rx="4.38" fill="#ffbc0e"></rect><path d="M180.36,233.06H118.12a5.39,5.39,0,0,1-5.38-5.38V150.17a5.39,5.39,0,0,1,5.38-5.38h62.24a5.39,5.39,0,0,1,5.38,5.38v77.51A5.39,5.39,0,0,1,180.36,233.06Zm-62.24-86.27a3.38,3.38,0,0,0-3.38,3.38v77.51a3.38,3.38,0,0,0,3.38,3.38h62.24a3.39,3.39,0,0,0,3.38-3.38V150.17a3.39,3.39,0,0,0-3.38-3.38Z" fill="#093f68"></path><rect x="119.89" y="149.78" width="58.7" height="75.08" fill="#fff"></rect><path d="M178.59,225.86h-58.7a1,1,0,0,1-1-1V149.78a1,1,0,0,1,1-1h58.7a1,1,0,0,1,1,1v75.08A1,1,0,0,1,178.59,225.86Zm-57.7-2h56.7V150.78h-56.7Z" fill="#093f68"></path><rect x="134.01" y="141.69" width="30.46" height="10.64" rx="3.04" fill="#68e1fd"></rect><path d="M161.43,153.33H137.05a4,4,0,0,1-4-4v-4.56a4,4,0,0,1,4-4h24.38a4,4,0,0,1,4,4v4.56A4,4,0,0,1,161.43,153.33Zm-24.38-10.64a2,2,0,0,0-2,2v4.56a2,2,0,0,0,2,2h24.38a2,2,0,0,0,2-2v-4.56a2,2,0,0,0-2-2Z" fill="#093f68"></path><path d="M263.79,165.75V154.11a4.9,4.9,0,0,0-9.8,0v14.7h0c-1.11,1.81-1.76,4.67-1.76,9.21,0,12.32,5.75,14.45,11.64,14.45s13.19-4.58,13.91-8.07C279.12,178.06,269.28,166.25,263.79,165.75Z" fill="#ffc9b0"></path><path d="M263.91,193.47c-5.42,0-12.64-1.6-12.64-15.45,0-4.23.56-7.31,1.72-9.41v-14.5a5.9,5.9,0,0,1,11.8,0v10.8c3.32.85,7.25,4.52,9.87,8,1.54,2.08,5,7.37,4.14,11.65S270,193.47,263.91,193.47ZM255,168.58a1,1,0,0,1-.11.75c-1.08,1.77-1.61,4.61-1.61,8.69,0,11.85,5.38,13.45,10.64,13.45s12.33-4.33,12.93-7.27c.49-2.39-1-6.24-3.79-10.06-3.06-4.13-6.91-7.17-9.35-7.4a1,1,0,0,1-.91-1V154.11a3.9,3.9,0,0,0-7.8,0Z" fill="#093f68"></path><rect x="256.76" y="163.12" width="21.41" height="5.69" rx="2.84" fill="#ffc9b0"></rect><path d="M275.33,169.81H259.61a3.85,3.85,0,1,1,0-7.69h15.72a3.85,3.85,0,1,1,0,7.69Zm-15.72-5.69a1.85,1.85,0,1,0,0,3.69h15.72a1.85,1.85,0,1,0,0-3.69Z" fill="#093f68"></path><rect x="256.76" y="168.81" width="21.41" height="5.69" rx="2.84" fill="#ffc9b0"></rect><path d="M275.33,175.49H259.61a3.84,3.84,0,1,1,0-7.68h15.72a3.84,3.84,0,1,1,0,7.68Zm-15.72-5.68a1.84,1.84,0,1,0,0,3.68h15.72a1.84,1.84,0,1,0,0-3.68Z" fill="#093f68"></path><rect x="256.76" y="174.49" width="21.41" height="5.69" rx="2.84" fill="#ffc9b0"></rect><path d="M275.33,181.18H259.61a3.85,3.85,0,1,1,0-7.69h15.72a3.85,3.85,0,1,1,0,7.69Zm-15.72-5.69a1.85,1.85,0,1,0,0,3.69h15.72a1.85,1.85,0,1,0,0-3.69Z" fill="#093f68"></path><path d="M276.24,188.06a1,1,0,0,1-.71-.3,1,1,0,0,1,0-1.41,5.11,5.11,0,0,0,1.65-3.33,1.85,1.85,0,0,0-1.85-1.84H259.61a1.85,1.85,0,1,0,0,3.69h9.17a1,1,0,0,1,0,2h-9.17a3.85,3.85,0,1,1,0-7.69h15.72a3.85,3.85,0,0,1,3.85,3.84,7,7,0,0,1-2.24,4.75A1,1,0,0,1,276.24,188.06Z" fill="#093f68"></path><path d="M233.43,221.2a1,1,0,0,1-1-1V204.41a1,1,0,0,1,2,0V220.2A1,1,0,0,1,233.43,221.2Z" fill="#093f68"></path><path d="M245.89,212a1,1,0,0,1-.24,0,1,1,0,0,1-.73-1.21l3-12a1,1,0,0,1,1.22-.73,1,1,0,0,1,.72,1.21l-3,12A1,1,0,0,1,245.89,212Z" fill="#093f68"></path><path d="M145.14,183.46H127.79a1,1,0,0,1-1-1V163.22a1,1,0,0,1,1-1h17.35a1,1,0,0,1,1,1v19.24A1,1,0,0,1,145.14,183.46Zm-16.35-2h15.35V164.22H128.79Z" fill="#dfeaef"></path><path d="M134.47,180.32a1.82,1.82,0,0,1-.46-.06,2,2,0,0,1-1.42-1.27l-3.06-8.5a2,2,0,1,1,3.76-1.36l2,5.63,11.88-11.27a2,2,0,1,1,2.75,2.91l-14.09,13.37A2,2,0,0,1,134.47,180.32Z" fill="#093f68"></path><path d="M172.61,170.41H152.19a1,1,0,0,1,0-2h20.42a1,1,0,0,1,0,2Z" fill="#dfeaef"></path><path d="M166.62,177.27H152.19a1,1,0,0,1,0-2h14.43a1,1,0,0,1,0,2Z" fill="#dfeaef"></path><path d="M145.14,211.79H127.79a1,1,0,0,1-1-1V191.54a1,1,0,0,1,1-1h17.35a1,1,0,0,1,1,1v19.25A1,1,0,0,1,145.14,211.79Zm-16.35-2h15.35V192.54H128.79Z" fill="#dfeaef"></path><path d="M134.47,208.64a2.4,2.4,0,0,1-.46,0,2,2,0,0,1-1.42-1.27l-3.06-8.51a2,2,0,1,1,3.76-1.35l2,5.62,11.88-11.26a2,2,0,1,1,2.75,2.9l-14.09,13.37A2,2,0,0,1,134.47,208.64Z" fill="#093f68"></path><path d="M172.61,198.73H152.19a1,1,0,0,1,0-2h20.42a1,1,0,0,1,0,2Z" fill="#dfeaef"></path><path d="M166.62,205.6H152.19a1,1,0,0,1,0-2h14.43a1,1,0,0,1,0,2Z" fill="#dfeaef"></path><path d="M105.59,186.05c0-.1,0-.19,0-.29a9.09,9.09,0,0,1,1-3.4c2.47-3.29,6.4-3.43,10.19-4.36,2.53-.62,5.5-1.16,7.51.52a1.58,1.58,0,0,1,.53.7c.22.75-.5,1.43-1.17,1.83a15.15,15.15,0,0,1-6.54,2.11,17.78,17.78,0,0,1,6.78,0c1.16.22,2.5.79,2.64,1.95.16,1.39-1.47,2.23-2.82,2.56a36.26,36.26,0,0,1-5.94,1,31.75,31.75,0,0,1,6.61-.09c.79.08,1.71.27,2,1a1.61,1.61,0,0,1-.48,1.77,4.17,4.17,0,0,1-1.76.84,27.42,27.42,0,0,1-6.68,1c1.83,0,3.67,0,5.5,0a3.92,3.92,0,0,1,1.74.33,1.4,1.4,0,0,1,.8,1.46,1.63,1.63,0,0,1-.67.88c-1.55,1.13-3.64.9-5.55.95a5.57,5.57,0,0,0-3.92,1.4c-.88,1-.79,2.44-2.05,3.19-2.11,1.24-5.18-1-6.29-2.69-1.47-2.2-1.77-5-1.77-7.61A42.3,42.3,0,0,1,105.59,186.05Z" fill="#ffc9b0"></path><path d="M112,202.75c-2.38,0-4.8-2.07-5.76-3.5-1.71-2.58-1.93-5.72-1.93-8.17a42.13,42.13,0,0,1,.31-5.15l0-.3a10,10,0,0,1,1.08-3.76l.06-.11c2.23-3,5.47-3.62,8.61-4.27.71-.14,1.42-.29,2.14-.46,3-.74,6.12-1.17,8.39.72a2.46,2.46,0,0,1,.85,1.19c.31,1.06-.29,2.17-1.61,3l-.31.19.22,0c2,.38,3.28,1.41,3.44,2.81a3,3,0,0,1-1.64,2.87,2.52,2.52,0,0,1,1.45,1.27,2.58,2.58,0,0,1-.7,2.93,4.43,4.43,0,0,1-1.19.74,2.34,2.34,0,0,1,1.08,2.44,2.54,2.54,0,0,1-1.06,1.46c-1.53,1.12-3.43,1.13-5.11,1.13h-1a4.5,4.5,0,0,0-3.2,1.07,3.79,3.79,0,0,0-.58,1.08,4.16,4.16,0,0,1-1.72,2.3A3.66,3.66,0,0,1,112,202.75Zm-4.56-19.84a8.52,8.52,0,0,0-.8,3l0,.28h0a42.29,42.29,0,0,0-.29,4.91c0,2.17.18,4.93,1.6,7.06,1,1.5,3.57,3.19,5,2.38a2.36,2.36,0,0,0,.88-1.32,5.3,5.3,0,0,1,.93-1.67c1.26-1.43,3.45-1.7,4.64-1.74h1c1.51,0,2.94,0,4-.75.26-.19.29-.3.29-.3a.57.57,0,0,0-.29-.35,3.27,3.27,0,0,0-1.31-.21c-1.81-.07-3.64-.08-5.45,0a1,1,0,0,1-1-1,1,1,0,0,1,1-1,26.49,26.49,0,0,0,6.44-1,3.57,3.57,0,0,0,1.35-.61.66.66,0,0,0,.25-.62c0-.09-.25-.32-1.23-.41a31,31,0,0,0-5.19,0l-1.25.13a1,1,0,0,1-1.08-.9,1,1,0,0,1,.88-1.09l1.26-.13a33.54,33.54,0,0,0,4.56-.83c1.08-.27,2.14-.86,2.07-1.47s-1-.94-1.83-1.09a17,17,0,0,0-4.56-.22,16.09,16.09,0,0,1-2,.29,1,1,0,0,1-.29-2c.64-.13,1.29-.22,1.94-.29a14.1,14.1,0,0,0,4.29-1.7c.53-.32.71-.62.72-.69h0a1.1,1.1,0,0,0-.21-.22c-1.59-1.31-4.13-.93-6.64-.31-.73.18-1.48.33-2.21.48C111.79,180.07,109.19,180.6,107.42,182.91Zm-1.83,3.14h0Z" fill="#093f68"></path><rect x="216" y="193.27" width="12.5" height="6.69" fill="#fff"></rect><path d="M228.49,201H216a1,1,0,0,1-1-1v-6.69a1,1,0,0,1,1-1h12.49a1,1,0,0,1,1,1V200A1,1,0,0,1,228.49,201ZM217,199h10.49v-4.69H217Z" fill="#093f68"></path><path d="M138.83,117.72a1,1,0,0,1-1-1v-4.24a1,1,0,1,1,2,0v4.24A1,1,0,0,1,138.83,117.72Z" fill="#dfeaef"></path><path d="M138.83,126.94a1,1,0,0,1-1-1V121.7a1,1,0,0,1,2,0v4.24A1,1,0,0,1,138.83,126.94Z" fill="#dfeaef"></path><path d="M145.56,120.21h-4.24a1,1,0,0,1,0-2h4.24a1,1,0,0,1,0,2Z" fill="#dfeaef"></path><path d="M136.35,120.21h-4.24a1,1,0,0,1,0-2h4.24a1,1,0,0,1,0,2Z" fill="#dfeaef"></path><path d="M101.16,144.31a1,1,0,0,1-1-1v-4.24a1,1,0,0,1,2,0v4.24A1,1,0,0,1,101.16,144.31Z" fill="#dfeaef"></path><path d="M101.16,153.52a1,1,0,0,1-1-1v-4.24a1,1,0,0,1,2,0v4.24A1,1,0,0,1,101.16,153.52Z" fill="#dfeaef"></path><path d="M107.89,146.79h-4.24a1,1,0,0,1,0-2h4.24a1,1,0,1,1,0,2Z" fill="#dfeaef"></path><path d="M98.67,146.79H94.43a1,1,0,0,1,0-2h4.24a1,1,0,0,1,0,2Z" fill="#dfeaef"></path><path d="M195,134.71H181.57a6.78,6.78,0,0,1-6.77-6.77v-5.53a6.78,6.78,0,0,1,6.77-6.77H195a6.78,6.78,0,0,1,6.77,6.77v5.53A6.78,6.78,0,0,1,195,134.71Zm-13.44-17.07a4.78,4.78,0,0,0-4.77,4.77v5.53a4.78,4.78,0,0,0,4.77,4.77H195a4.78,4.78,0,0,0,4.77-4.77v-5.53a4.78,4.78,0,0,0-4.77-4.77Z" fill="#093f68"></path><path d="M230.72,134.71H217.28a6.78,6.78,0,0,1-6.77-6.77v-5.53a6.78,6.78,0,0,1,6.77-6.77h13.44a6.78,6.78,0,0,1,6.77,6.77v5.53A6.78,6.78,0,0,1,230.72,134.71Zm-13.44-17.07a4.78,4.78,0,0,0-4.77,4.77v5.53a4.78,4.78,0,0,0,4.77,4.77h13.44a4.78,4.78,0,0,0,4.77-4.77v-5.53a4.78,4.78,0,0,0-4.77-4.77Z" fill="#093f68"></path><path d="M211.51,124.82a1,1,0,0,1-.62-.21c-3.86-3-8.63-.07-8.83,0A1,1,0,1,1,201,123c.25-.16,6.16-3.86,11.15,0a1,1,0,0,1-.62,1.79Z" fill="#093f68"></path><path d="M175.8,121.71h-9.06a1,1,0,0,1,0-2h9.06a1,1,0,0,1,0,2Z" fill="#093f68"></path><path d="M245.72,121.71h-9.06a1,1,0,0,1,0-2h9.06a1,1,0,0,1,0,2Z" fill="#093f68"></path></g></svg>